<svg xmlns="http://www.w3.org/2000/svg" viewBox="0 0 24 24" fill="none">
    <path d="M12 2C6.48 2 2 6.48 2 12s4.48 10 10 10 10-4.48 10-10S17.52 2 12 2zm-1.8 15.3c-2.5-.5-4.2-2.1-4.2-3.8 0-2 2.2-3.5 5.5-3.5 1.5 0 2.8.3 3.7.8V9.6c0-1.2-.9-1.8-2.7-1.8-1.5 0-3.1.4-4.2 1.1L7 7.4C8.5 6.4 10.7 5.8 12.8 5.8c3.5 0 5.4 1.6 5.4 4.5v6.2h-1.8v-1.4c-.9.9-2.2 1.6-4.2 1.6zm.5-1.6c1.8 0 3-.9 3.5-2v-1.1c-.8-.5-1.9-.8-3.1-.8-2.2 0-3.6.9-3.6 2.2 0 1.1 1.1 1.7 3.2 1.7z" fill="#232F3E"/>
    <path d="M5.5 18c4.5 3 10.5 3 14 0c.8.5 1.2 1 1.5 1.5c-4.5 4-12 4-17 0c.2-.5.8-1 1.5-1.5z" fill="#FF9900"/>
</svg>
